#!OML:ASF F:\VICON\USERDATA\INSTALL\rory3\rory3.ASF
:FULLY-SPECIFIED
:DEGREES
2439
root -13.9632 17.7675 16.7327 547.643 -67.0585 167.952
lowerback 10.3227 1.92327 -2.13634
upperback 1.38416 2.28447 0.579107
thorax -4.45045 1.14399 1.48646
lowerneck -15.5731 1.30921 -10.7777
upperneck 39.9049 2.267 3.32515
head 16.9671 -0.96644 3.62485
rclavicle 4.9895e-014 1.51076e-014
rhumerus -37.324 -8.85714 -79.4874
rradius 35.3903
rwrist 3.4489
rhand -16.5682 8.24549
rfingers 7.12502
rthumb 9.65201 -21.5134
lclavicle 4.9895e-014 1.51076e-014
lhumerus -34.6874 8.72309 79.4495
lradius 42.9339
lwrist 1.05505
lhand -19.6459 26.9382
lfingers 7.12502
lthumb 6.68166 56.8128
rfemur -12.0711 4.12449 11.6713
rtibia 51.6793
rfoot -18.0802 -7.37668
rtoes 5.42454
lfemur -2.54514 -5.70098 -26.9164
ltibia 16.1374
lfoot -2.05024 -30.1411
ltoes 21.0523
2440
root -13.9539 17.7651 16.6734 548.554 -68.5299 167.161
lowerback 10.5437 1.78031 -1.60581
upperback 1.17044 2.12883 0.0642464
thorax -4.75049 1.05889 0.664317
lowerneck -15.5913 1.45947 -10.5184
upperneck 40.1699 2.27246 3.68963
head 17.1015 -0.887107 3.75782
rclavicle 7.05686e-015 -2.38542e-015
rhumerus -37.6814 -8.73136 -80.2463
rradius 35.5649
rwrist 3.61156
rhand -16.1656 7.98789
rfingers 7.12502
rthumb 10.0404 -21.7526
lclavicle 7.05686e-015 -2.38542e-015
lhumerus -35.0009 8.55687 78.192
lradius 43.1069
lwrist 0.802754
lhand -18.8693 26.7989
lfingers 7.12502
lthumb 7.43131 56.6484
rfemur -11.9332 5.4707 11.545
rtibia 51.0115
rfoot -18.3569 -6.57194
rtoes 5.88671
lfemur -2.75305 -6.0156 -26.7156
ltibia 16.2066
lfoot -1.00428 -31.2252
ltoes 22.9133
2441
root -13.9464 17.7609 16.6172 549.525 -70.0837 166.352
lowerback 10.4704 1.68699 -1.42579
upperback 1.12631 2.02111 -0.0905518
thorax -4.74101 1.00215 0.41903
lowerneck -15.6581 1.45331 -10.5132
upperneck 40.4006 2.19829 3.89396
head 17.2479 -0.897762 3.85043
rclavicle -1.60022e-014 -2.38542e-015
rhumerus -37.7684 -8.42556 -80.5635
rradius 35.7206
rwrist 3.66763
rhand -15.8733 7.90609
rfingers 7.12502
rthumb 10.3224 -21.8206
lclavicle -1.60022e-014 -2.38542e-015
lhumerus -35.0527 8.59711 77.574
lradius 43.2897
lwrist 1.12856
lhand -18.7487 27.2087
lfingers 7.12502
lthumb 7.54774 57.0541
rfemur -11.7885 6.57132 11.4809
rtibia 50.3074
rfoot -18.4603 -5.76044
rtoes 4.98286
lfemur -3.04127 -6.61829 -26.471
ltibia 16.3557
lfoot 0.266703 -32.1506
ltoes 24.8777
2442
root -13.9414 17.7617 16.5532 550.653 -71.7145 165.377
lowerback 10.2097 1.6688 -1.51903
upperback 1.18901 1.9915 -0.106427
thorax -4.53228 0.988523 0.467686
lowerneck -15.4749 1.35258 -10.2063
upperneck 40.4013 1.97263 3.78941
head 17.232 -0.947334 3.70756
rclavicle -6.01324e-015 -7.15625e-015
rhumerus -37.6676 -8.29467 -80.6234
rradius 35.7372
rwrist 3.30446
rhand -15.7008 8.27521
rfingers 7.12502
rthumb 10.4888 -21.4431
lclavicle -6.01324e-015 -7.15625e-015
lhumerus -34.9321 8.73745 77.1981
lradius 43.4555
lwrist 1.68925
lhand -19.3679 27.7443
lfingers 7.12502
lthumb 6.95 57.6102
rfemur -11.5965 7.62776 11.4461
rtibia 49.5894
rfoot -18.6323 -4.48252
rtoes 5.25724
lfemur -3.37351 -7.05141 -26.1731
ltibia 16.5631
lfoot 1.83315 -33.2271
ltoes 27.0636
2443
root -13.9366 17.7663 16.4883 551.333 -73.1849 164.858
lowerback 10.0613 1.70767 -1.40254
upperback 1.20635 2.05942 -0.124485
thorax -4.42811 1.02014 0.378582
lowerneck -15.1795 1.33937 -9.73761
upperneck 40.1997 1.96923 3.36108
head 17.0617 -0.909544 3.4183
rclavicle 5.15101e-014 3.97569e-016
rhumerus -37.6002 -8.34393 -80.5821
rradius 35.6987
rwrist 3.29281
rhand -15.1855 8.4673
rfingers 7.12502
rthumb 10.9858 -21.2253
lclavicle 5.15101e-014 3.97569e-016
lhumerus -34.8541 8.77069 76.7418
lradius 43.5865
lwrist 1.91556
lhand -18.8118 27.4182
lfingers 7.12502
lthumb 7.48678 57.2658
rfemur -11.4549 8.91409 11.5955
rtibia 48.8545
rfoot -18.6638 -3.27665
rtoes 4.33721
lfemur -3.72934 -7.14379 -25.6966
ltibia 16.793
lfoot 3.32818 -34.3857
ltoes 29.1317
2444
root -13.9266 17.7636 16.4375 552.563 -74.5787 163.737
lowerback 10.1467 1.72203 -1.25874
upperback 1.15333 2.09191 -0.173809
thorax -4.52456 1.03444 0.238473
lowerneck -14.953 1.44272 -9.53877
upperneck 40.0721 2.24111 2.94959
head 16.9235 -0.805039 3.23798
rclavicle 5.59082e-015 3.97569e-015
rhumerus -37.5315 -8.72673 -80.3409
rradius 35.4655
rwrist 4.21908
rhand -15.0244 8.37653
rfingers 7.12502
rthumb 11.1412 -21.3077
lclavicle 5.59082e-015 3.97569e-015
lhumerus -34.9205 8.84127 76.3143
lradius 43.6729
lwrist 1.85986
lhand -19.4285 27.5052
lfingers 7.12502
lthumb 6.89155 57.3731
rfemur -11.3522 10.0574 11.4878
rtibia 48.1298
rfoot -18.5868 -1.68242
rtoes 3.0797
lfemur -4.08615 -7.34585 -25.4344
ltibia 17.0322
lfoot 4.71021 -35.2808
ltoes 30.7346
2445
root -13.9111 17.7605 16.3897 554.926 -76.0647 161.495
lowerback 10.2716 1.69225 -1.25382
upperback 1.07807 2.04687 -0.276944
thorax -4.66809 1.01245 0.129572
lowerneck -14.8016 1.53094 -9.4415
upperneck 40.1518 2.4471 2.70023
head 16.9204 -0.738172 3.14484
rclavicle -2.48481e-014 8.74653e-015
rhumerus -37.5052 -8.80122 -80.2272
rradius 35.3181
rwrist 4.68894
rhand -15.1828 8.31472
rfingers 7.12502
rthumb 10.9885 -21.3777
lclavicle -2.48481e-014 8.74653e-015
lhumerus -34.9328 9.13312 75.8082
lradius 43.667
lwrist 1.4969
lhand -19.4746 27.5796
lfingers 7.12502
lthumb 6.84704 57.4489
rfemur -11.2753 11.0493 11.157
rtibia 47.4003
rfoot -18.6413 0.274538
rtoes 1.33967
lfemur -4.51074 -7.72163 -25.354
ltibia 17.2633
lfoot 6.4136 -36.042
ltoes 32.2419
2446
root -13.8982 17.7595 16.3317 556.938 -77.5072 159.671
lowerback 10.2619 1.71827 -1.0339
upperback 1.03311 2.1012 -0.408862
thorax -4.69735 1.03483 -0.139467
lowerneck -14.7039 1.46198 -9.43106
upperneck 40.2339 2.34351 2.71263
head 16.9508 -0.773117 3.13412
rclavicle 8.59744e-015 7.55382e-015
rhumerus -37.5079 -8.76435 -80.2962
rradius 35.2981
rwrist 4.56592
rhand -15.2047 8.4782
rfingers 7.12502
rthumb 10.9673 -21.2153
lclavicle 8.59744e-015 7.55382e-015
lhumerus -34.8225 9.51639 75.1854
lradius 43.7714
lwrist 1.21022
lhand -18.3762 27.443
lfingers 7.12502
lthumb 7.90723 57.2751
rfemur -11.2333 12.0509 11.0985
rtibia 46.6774
rfoot -18.9139 2.14939
rtoes -1.32526
lfemur -4.92012 -8.16658 -25.0222
ltibia 17.4087
lfoot 8.17686 -36.6179
ltoes 33.7055
2447
root -13.8901 17.7614 16.2646 558.018 -78.7914 158.764
lowerback 10.1078 1.82829 -0.706763
upperback 1.12405 2.28503 -0.433251
thorax -4.50374 1.11924 -0.367154
lowerneck -14.703 1.31527 -9.63372
upperneck 40.1895 2.19076 2.80851
head 16.9378 -0.835748 3.19054
rclavicle -2.72583e-014 2.78299e-015
rhumerus -37.366 -8.94902 -80.2607
rradius 35.4016
rwrist 4.51034
rhand -15.1339 8.50147
rfingers 7.12502
rthumb 11.0356 -21.1884
lclavicle -2.72583e-014 2.78299e-015
lhumerus -34.6009 9.71207 74.7742
lradius 43.9171
lwrist 1.64271
lhand -18.3462 27.2215
lfingers 7.12502
lthumb 7.93616 57.0526
rfemur -11.1835 13.2928 11.3159
rtibia 45.951
rfoot -19.1473 4.31421
rtoes -1.82203
lfemur -5.23791 -8.5882 -24.463
ltibia 17.5024
lfoot 9.91175 -37.0019
ltoes 35.059
